<svg xmlns="http://www.w3.org/2000/svg" style="display: none;" id="aeicon" viewBox="0 0 1024 1024">
  <path d="M347.54 257.05C178.5 257.55 34.6 386.19 12.89 513.2l64.59-.58c42.62-126.36 179.43-217.38 317.11-192.97 68.74 16.72 69.28 67.61 70.7 123.72-41 .78-83.32-4.2-121.16-.85-106.79 16.39-177.4 52.34-179.3 163.06 2.7 85.48 66.27 150.36 143.59 151.43 87.05-.45 147.85-38.59 197.92-97.04l18-320.3c-46.23-68.4-87.3-83.39-176.79-82.61zm112.75 247.07c.51 38.16 4.08 76.11 16.21 109.99-57.45 45.67-149.06 97.84-211.61 46.15-28.66-31.41-31.52-84.38-3.9-113.57 55.77-55.31 133.63-40.41 199.3-42.56zm-447.52 8.91c3.25 246.92 183.47 487.28 486.43 497.34 247.05 8.21 514.12-197.29 512.49-508.13l-.14.06c-45.9 290.79-330.77 439.97-510.42 439.32-239.16-.53-423.44-187.69-423.44-429.04z" fill="#c83200"/>
  <path d="M506.44 14.58C278.3 14.7 12.92 199.53 12.89 513.2c65-293.99 250.04-416.35 487.3-432.86 256.71 8.49 441.19 236.44 450.17 423.81l61.33-1.9C1008.28 230.43 781.8 14.44 506.44 14.58zm176.88 242.1c-64.1 2.75-116.33 32.4-159 80.07l-18.88 322.32c55.16 56.95 133.73 87.97 202.65 88.43 157.83.01 276.71-114.81 303.46-245.19l-61.09 1.67c-35.48 128.51-142.55 183.29-243.92 188.4-97.97-3.68-163.61-64.87-159.71-190.9l322.96 1.7c.36-65.32-12.19-141.55-48.76-188.6-31.54-38.45-77.28-57.9-137.71-57.9zm1.86 60.32c78.12 3.66 110.34 54.89 118.46 123.55H552.31c11.7-73 64.43-122.51 132.87-123.55z" fill="#329600"/>
</svg>